HIERARCHY
ROOT root
{
	OFFSET 0.000000 0.000000 0.000000
	CHANNELS 6 Xposition Yposition Zposition Zrotation Yrotation Xrotation
	JOINT lhip
	{
		OFFSET 0.058581 -0.082280 -0.017664
		CHANNELS 3 Zrotation Yrotation Xrotation
		JOINT lknee
		{
			OFFSET 0.043451 -0.386469 0.008037
			CHANNELS 3 Zrotation Yrotation Xrotation
			JOINT lankle
			{
				OFFSET -0.014790 -0.426874 -0.037428
				CHANNELS 3 Zrotation Yrotation Xrotation
				JOINT ltoe
				{
					OFFSET 0.041054 -0.060286 0.122042
					CHANNELS 3 Zrotation Yrotation Xrotation
					End Site
					{
						OFFSET 0.000000 0.000000 0.000000
					}
				}
			}
		}
	}
	JOINT rhip
	{
		OFFSET -0.060310 -0.090513 -0.013543
		CHANNELS 3 Zrotation Yrotation Xrotation
		JOINT rknee
		{
			OFFSET -0.043257 -0.383688 -0.004843
			CHANNELS 3 Zrotation Yrotation Xrotation
			JOINT rankle
			{
				OFFSET 0.019056 -0.420046 -0.034562
				CHANNELS 3 Zrotation Yrotation Xrotation
				JOINT rtoe
				{
					OFFSET -0.034840 -0.062106 0.130323
					CHANNELS 3 Zrotation Yrotation Xrotation
					End Site
					{
						OFFSET 0.000000 0.000000 0.000000
					}
				}
			}
		}
	}
	JOINT lowerback
	{
		OFFSET 0.004439 0.124404 -0.038385
		CHANNELS 3 Zrotation Yrotation Xrotation
		JOINT upperback
		{
			OFFSET 0.004488 0.137956 0.026820
			CHANNELS 3 Zrotation Yrotation Xrotation
			JOINT chest
			{
				OFFSET -0.002265 0.056032 0.002855
				CHANNELS 3 Zrotation Yrotation Xrotation
				JOINT lowerneck
				{
					OFFSET -0.013390 0.211636 -0.033468
					CHANNELS 3 Zrotation Yrotation Xrotation
					JOINT upperneck
					{
						OFFSET 0.010113 0.088937 0.050410
						CHANNELS 3 Zrotation Yrotation Xrotation
						End Site
						{
							OFFSET 0.000000 0.000000 0.000000
						}
					}
				}
				JOINT lclavicle
				{
					OFFSET 0.071702 0.114000 -0.018898
					CHANNELS 3 Zrotation Yrotation Xrotation
					JOINT lshoulder
					{
						OFFSET 0.122921 0.045205 -0.019046
						CHANNELS 3 Zrotation Yrotation Xrotation
						JOINT lelbow
						{
							OFFSET 0.255332 -0.015649 -0.022946
							CHANNELS 3 Zrotation Yrotation Xrotation
							JOINT lwrist
							{
								OFFSET 0.265709 0.012698 -0.007375
								CHANNELS 3 Zrotation Yrotation Xrotation
								End Site
								{
									OFFSET 0.000000 0.000000 0.000000
								}
							}
						}
					}
				}
				JOINT rclavicle
				{
					OFFSET -0.082954 0.112472 -0.023707
					CHANNELS 3 Zrotation Yrotation Xrotation
					JOINT rshoulder
					{
						OFFSET -0.113228 0.046853 -0.008472
						CHANNELS 3 Zrotation Yrotation Xrotation
						JOINT relbow
						{
							OFFSET -0.260127 -0.014369 -0.031269
							CHANNELS 3 Zrotation Yrotation Xrotation
							JOINT rwrist
							{
								OFFSET -0.269108 0.006794 -0.006027
								CHANNELS 3 Zrotation Yrotation Xrotation
								End Site
								{
									OFFSET 0.000000 0.000000 0.000000
								}
							}
						}
					}
				}
			}
		}
	}
}
MOTION
Frames: 15
Frame Time: 0.033333
0.053056 0.266299 0.972537 87.014498 -1.117519 85.022088 0.735676 -4.278666 -16.193803 -1.688582 1.331304 3.150956 1.438971 13.366206 -15.871128 0.000000 -0.000000 0.000000 3.455228 -2.951997 9.039761 0.082713 7.532434 17.648047 -0.499063 -5.723111 -24.514984 0.000000 -0.000000 0.000000 0.936397 9.111301 7.044202 -0.240828 1.962007 3.605349 -0.730536 3.274473 -0.266711 2.264306 -0.195239 -2.973768 0.669088 -11.400670 8.140081 -22.943103 9.188144 -0.372509 -57.840298 5.797338 6.330125 2.787704 -39.333185 17.050771 -2.022833 1.138135 0.903034 24.517494 2.123137 2.373592 59.446778 5.529577 13.178172 -12.893756 39.966736 5.941295 -16.689627 -1.284761 6.508344 
0.066438 0.269773 0.970912 86.854679 -0.981442 85.774571 0.487765 -4.476385 -15.684913 -1.574419 0.862169 2.530042 1.562840 13.159060 -15.733773 0.000000 -0.000000 0.000000 3.398463 -2.680213 9.103640 0.003289 7.663052 17.680669 -0.325581 -5.734102 -24.551613 0.000000 -0.000000 0.000000 0.826389 9.210253 6.482265 -0.215662 2.171184 3.604843 -0.746973 3.365733 -0.476439 2.348804 -0.221124 -3.081935 0.645935 -11.544506 7.911992 -22.855795 9.340554 -0.358720 -58.044793 5.879604 6.306665 3.005138 -38.606901 16.896793 -2.024617 1.181173 1.275595 24.550657 2.159584 2.420975 59.691787 5.524857 13.262587 -13.046198 39.283222 5.728066 -16.624190 -1.312654 6.475672 
0.079619 0.273293 0.970316 87.043998 -1.047611 86.600511 0.238180 -4.539330 -15.757514 -1.584541 1.011498 1.877011 1.733701 13.257655 -14.846344 0.000000 -0.000000 0.000000 3.384008 -2.307545 8.910706 -0.263989 7.658449 17.949218 -0.069048 -6.139489 -24.304349 0.000000 -0.000000 0.000000 0.275675 9.244715 6.225231 -0.112780 2.186033 3.202812 -0.652123 3.379679 -0.627103 2.495358 -0.153967 -3.479513 0.553616 -11.610977 8.018073 -22.856363 9.495845 -0.321078 -58.163047 5.742028 6.309463 3.315250 -37.618209 16.566403 -1.840013 1.158287 1.525512 24.705823 2.097491 2.336362 59.915836 5.577631 13.590723 -13.268134 38.311395 5.329989 -16.602924 -1.399150 6.559080 
0.092637 0.277073 0.971502 87.726208 -1.219009 87.230346 0.139668 -5.006236 -16.087545 -2.021006 1.260702 2.593521 1.386352 13.176163 -14.557517 0.000000 -0.000000 0.000000 3.305357 -2.076475 8.799616 -0.461110 7.382090 18.468595 0.362547 -6.645774 -23.721544 0.000000 -0.000000 0.000000 -0.385440 9.347147 6.213731 0.014225 1.885581 2.958794 -0.523688 3.194222 -0.789029 2.602132 -0.147710 -3.954136 0.534702 -11.636352 7.869266 -22.780634 9.313309 -0.263345 -58.480547 5.420206 6.344356 3.988434 -36.258371 15.918414 -1.785565 1.200895 1.508216 24.853196 2.090435 2.067273 60.232644 5.582227 13.948995 -13.552134 37.098581 4.980825 -16.463336 -1.687145 6.505775 
0.105921 0.281133 0.973692 88.593590 -1.201607 87.733019 0.033562 -5.172054 -16.151735 -2.463828 0.880676 3.132401 0.946556 12.578068 -14.365470 0.000000 -0.000000 0.000000 3.228650 -2.186832 8.690549 -0.480533 6.966838 19.170404 0.829650 -6.735070 -22.831532 0.000000 -0.000000 0.000000 -0.753129 9.312850 6.225326 0.131814 1.526061 2.912116 -0.420423 3.031753 -0.978351 2.664715 -0.239478 -4.260885 0.667552 -11.661028 7.575139 -22.656692 8.787630 -0.132710 -58.854373 5.231012 6.343722 4.607189 -35.161485 15.227091 -1.766494 1.206427 1.478895 24.812093 2.308882 1.958911 60.662224 5.482980 13.999469 -13.826295 35.951061 4.564735 -16.231183 -2.031099 6.387282 
0.120157 0.285282 0.975756 89.265402 -1.020879 88.263933 -0.257927 -5.094031 -15.937978 -2.517138 0.322898 3.246761 0.899716 12.045766 -14.048726 0.000000 -0.000000 0.000000 3.146837 -2.378278 8.599776 -0.391534 6.668583 19.809998 1.273197 -6.517583 -21.658780 0.000000 -0.000000 0.000000 -0.965799 9.208973 5.989622 0.268805 1.306777 3.083110 -0.298329 2.983303 -1.233094 2.694011 -0.425934 -4.314841 0.955652 -11.550318 6.895150 -22.501639 8.260714 0.005095 -59.074631 5.221084 6.389836 4.713277 -34.603856 15.023448 -1.732188 1.232954 1.505987 24.632689 2.602941 2.000250 61.049844 5.236518 13.953918 -13.995259 35.102623 4.134658 -16.014803 -2.249746 6.210389 
0.135081 0.289316 0.977636 89.791559 -0.919571 88.832198 -0.605689 -5.410786 -15.621914 -2.495593 -0.322160 3.219525 0.946767 11.592788 -13.886208 0.000000 -0.000000 0.000000 2.975314 -2.464980 8.625078 -0.378536 6.326289 20.210196 1.962925 -6.157174 -20.304399 0.000000 -0.000000 0.000000 -1.332210 9.263049 5.718934 0.439327 1.117542 3.095031 -0.154282 2.941157 -1.456055 2.848698 -0.505379 -4.328410 1.253237 -11.681021 6.303283 -22.336437 7.893907 0.111927 -58.984844 5.240288 6.719247 4.427683 -34.425380 15.073331 -1.621541 0.842676 1.662701 24.601279 2.699309 1.936885 61.226408 4.807256 14.108078 -14.048252 34.479812 3.810992 -16.009562 -2.286633 6.117760 
0.150307 0.293377 0.979379 90.215505 -0.953365 89.397746 -0.830067 -6.105717 -15.420405 -2.687394 -0.808914 3.487483 0.777348 11.054749 -13.725622 0.000000 -0.000000 0.000000 2.537516 -2.565704 8.843193 -0.352579 5.734856 20.310565 2.985981 -5.543092 -18.957491 0.000000 -0.000000 0.000000 -1.797088 9.508248 5.407117 0.611830 0.912611 3.055079 -0.074284 2.859072 -1.635020 3.117995 -0.422817 -4.430894 1.408408 -12.055285 5.961305 -22.179852 7.708849 0.185902 -58.739706 5.008439 7.134072 4.252392 -34.193132 15.018233 -1.901431 0.256274 1.825225 24.747819 2.503123 1.768922 61.286625 4.425775 14.338463 -14.068593 33.942032 3.674370 -15.892058 -2.247873 6.138976 
0.165392 0.297577 0.980698 90.421146 -0.949715 89.955696 -0.934834 -6.425879 -15.442302 -2.983369 -0.987470 4.122259 0.598801 10.689542 -13.209234 0.000000 -0.000000 0.000000 1.725864 -2.964670 9.196899 -0.099583 5.257028 20.181328 4.194003 -4.245234 -17.593033 0.000000 -0.000000 0.000000 -2.008482 9.781227 5.140322 0.660026 0.735793 2.971509 -0.089323 2.825537 -1.790430 3.290475 -0.320317 -4.560787 1.598667 -12.307363 5.540768 -22.069643 7.545108 0.161287 -58.514014 4.744537 7.275548 4.371778 -33.843039 14.659270 -2.108823 -0.050673 1.923832 24.847403 2.268478 1.695324 61.362122 4.167580 14.335225 -13.931274 33.524684 3.746218 -15.843892 -2.167059 6.136027 
0.180263 0.301982 0.981363 90.310493 -0.837006 90.449602 -0.964144 -6.310735 -15.609800 -3.282301 -1.052369 5.076397 0.648465 10.412335 -12.034393 0.000000 -0.000000 0.000000 0.674166 -3.502990 9.620233 0.389558 5.357691 20.054241 5.316629 -2.472999 -16.100062 0.000000 -0.000000 0.000000 -1.880415 9.983093 4.967853 0.590068 0.623233 2.905741 -0.207306 2.902840 -1.972741 3.299665 -0.294408 -4.769889 1.817784 -12.371382 5.330813 -22.085827 7.287177 0.057325 -58.240730 4.656208 7.145926 4.723265 -33.477747 13.755534 -1.756365 -0.079108 2.193309 24.872001 2.304078 1.790610 61.440685 3.936852 14.118990 -13.781268 33.186191 3.631737 -15.828253 -2.225340 6.334671 
0.195210 0.306543 0.981371 89.990452 -0.729391 90.828647 -1.120458 -6.244710 -15.827287 -3.432346 -1.245865 6.183143 1.568099 10.200557 -10.302888 0.000000 -0.000000 0.000000 -0.354807 -3.888324 10.011041 0.865182 6.007944 20.169494 6.259821 -0.949282 -14.586453 0.000000 -0.000000 0.000000 -1.668090 10.114388 4.962475 0.497680 0.601389 2.677298 -0.353025 2.962586 -2.032252 3.261587 -0.373413 -5.102987 1.880497 -12.254300 5.365246 -22.140523 7.209975 -0.065817 -57.885139 4.494483 7.040889 4.965726 -33.135693 12.989164 -1.078913 -0.018372 2.336274 24.847730 2.338067 1.773338 61.414944 3.738059 14.163003 -13.500445 32.864127 3.535472 -15.871268 -2.153098 6.567595 
0.210059 0.311186 0.981061 89.647242 -0.688009 91.159598 -1.605329 -6.486574 -16.063362 -3.246831 -1.206745 7.347250 3.301705 10.005466 -8.643172 0.000000 -0.000000 0.000000 -1.096052 -3.917023 10.335377 1.136487 6.717801 20.442444 7.050329 -0.182267 -13.118746 0.000000 -0.000000 0.000000 -1.580049 10.143007 4.908327 0.438798 0.601663 2.477324 -0.444717 2.941267 -2.001898 3.224923 -0.678457 -5.317657 1.873156 -11.817480 5.434221 -22.278733 7.274388 -0.111099 -57.436250 4.193138 7.014671 5.146183 -32.852365 12.303249 -0.558451 0.173445 2.619227 24.897756 2.341158 1.639097 61.209483 3.627554 14.522185 -13.228999 32.505835 3.314965 -15.806734 -2.107812 7.059546 
0.224730 0.315739 0.980828 89.243164 -0.678236 91.518278 -2.190133 -6.837162 -16.247873 -2.765775 -0.646191 8.394986 4.828864 10.283829 -7.330712 0.000000 -0.000000 0.000000 -1.580425 -3.834370 10.486850 1.233852 7.232323 20.859498 7.676986 -0.054366 -11.690327 0.000000 -0.000000 0.000000 -1.590326 10.098136 4.687375 0.420446 0.550925 2.396320 -0.506698 2.868628 -1.995487 3.141411 -1.024727 -5.372980 1.889939 -11.181511 5.436521 -22.396620 7.328549 -0.040085 -57.056364 3.860358 6.990879 5.316935 -32.518078 11.830940 -0.194797 0.359509 2.793986 24.991025 2.342511 1.714140 60.973262 3.788460 14.976736 -13.049585 32.011819 3.027142 -15.835504 -1.922240 7.436128 
0.238885 0.319968 0.981023 88.794591 -0.691250 91.789923 -2.518135 -7.044360 -16.251215 -2.691200 -0.335792 9.443440 5.705462 10.806968 -7.460975 0.000000 -0.000000 0.000000 -2.003657 -3.843140 10.546184 1.262100 7.454142 21.436212 8.288431 -0.072098 -10.279566 0.000000 -0.000000 0.000000 -1.677658 10.075280 4.513402 0.439820 0.457913 2.420470 -0.511643 2.842958 -2.002133 3.057746 -1.248778 -5.436035 1.919023 -10.705814 5.353412 -22.500832 7.148505 0.011704 -56.768249 3.554602 6.916504 5.433538 -32.191434 11.476898 0.010410 0.479200 2.919569 25.090524 2.388642 1.639798 60.765309 3.792523 15.156521 -12.924225 31.616434 2.788501 -15.808345 -1.871832 7.636070 
0.252300 0.323930 0.981564 88.336288 -0.736262 92.131508 -2.756553 -7.033321 -16.166801 -2.842951 -0.144634 10.157878 6.250872 11.210834 -8.201075 0.000000 -0.000000 0.000000 -2.542907 -4.009659 10.369676 1.337910 7.542931 22.111070 8.921845 0.064020 -8.773323 0.000000 -0.000000 0.000000 -1.820843 10.041345 4.304815 0.448974 0.298547 2.448173 -0.515720 2.817207 -2.085559 2.954815 -1.363897 -5.444864 2.077706 -10.342370 5.130392 -22.552938 6.890586 0.025251 -56.473017 3.350187 6.841506 5.349161 -32.027430 11.252199 0.148729 0.502849 3.172124 25.165189 2.453697 1.555224 60.654483 3.704070 15.210875 -12.814681 31.201478 2.506013 -15.822553 -1.908676 7.905904 
